<?xml version="1.0" encoding="iso-8859-1"?>
<!-- Generator: Adobe Illustrator 19.0.0, SVG Export Plug-In . SVG Version: 6.00 Build 0)  -->
<svg version="1.1" id="Layer_1" xmlns="http://www.w3.org/2000/svg" xmlns:xlink="http://www.w3.org/1999/xlink" x="0px" y="0px"
	 viewBox="0 0 512 512" style="enable-background:new 0 0 512 512;" xml:space="preserve">
<path style="fill:#FFDB2D;" d="M468.293,512H43.707C19.607,512,0,492.393,0,468.293V43.707C0,19.607,19.607,0,43.707,0h424.585
	C492.393,0,512,19.607,512,43.707v424.585C512,492.393,492.393,512,468.293,512z"/>
<g>
	<path style="fill:#FF9900;" d="M468.293,0H256v512h212.293c24.1,0,43.707-19.607,43.707-43.707V43.707
		C512,19.607,492.393,0,468.293,0z"/>
	<path style="fill:#FF9900;" d="M393.366,412.098H118.634c-10.345,0-18.732-8.387-18.732-18.732V118.634
		c0-10.345,8.387-18.732,18.732-18.732h274.732c10.345,0,18.732,8.387,18.732,18.732v274.732
		C412.098,403.711,403.711,412.098,393.366,412.098z"/>
</g>
<g>
	<path style="fill:#FF4F19;" d="M393.366,99.902H256v312.195h137.366c10.345,0,18.732-8.387,18.732-18.732V118.634
		C412.098,108.289,403.711,99.902,393.366,99.902z"/>
	<path style="fill:#FF4F19;" d="M126.393,99.902h-7.759c-10.345,0-18.732,8.387-18.732,18.732v7.759l285.705,285.705h7.759
		c10.345,0,18.732-8.387,18.732-18.732v-7.759L126.393,99.902z"/>
</g>
<path style="fill:#FC0023;" d="M256,229.51v52.981l129.607,129.607h7.759c10.345,0,18.732-8.387,18.732-18.732v-7.759L256,229.51z"
	/>
<g>
</g>
<g>
</g>
<g>
</g>
<g>
</g>
<g>
</g>
<g>
</g>
<g>
</g>
<g>
</g>
<g>
</g>
<g>
</g>
<g>
</g>
<g>
</g>
<g>
</g>
<g>
</g>
<g>
</g>
</svg>
